HIERARCHY
ROOT Hips
{
    OFFSET 0.000000 0.000000 0.000000
    CHANNELS 6 Xposition Yposition Zposition Zrotation Xrotation Yrotation
    JOINT Spine
    {
        OFFSET -0.000000 8.834163 0.000000
        CHANNELS 3 Zrotation Xrotation Yrotation
        JOINT Spine1
        {
            OFFSET -0.000000 17.855492 0.000000
            CHANNELS 3 Zrotation Xrotation Yrotation
            JOINT Neck
            {
                OFFSET -0.000000 17.782162 1.616560
                CHANNELS 3 Zrotation Xrotation Yrotation
                JOINT Head
                {
                    OFFSET -0.000000 15.082717 -2.154674
                    CHANNELS 3 Zrotation Xrotation Yrotation
                    End Site
                    {
                        OFFSET -0.000000 26.933422 0.000000
                    }
                }
            }
            JOINT LeftShoulder
            {
                OFFSET 4.280775 15.989452 -0.632416
                CHANNELS 3 Zrotation Xrotation Yrotation
                JOINT LeftArm
                {
                    OFFSET 11.735877 0.000000 0.000000
                    CHANNELS 3 Zrotation Xrotation Yrotation
                    JOINT LeftForeArm
                    {
                        OFFSET 33.149986 0.000000 0.000000
                        CHANNELS 3 Zrotation Xrotation Yrotation
                        JOINT LeftHand
                        {
                            OFFSET 28.572401 0.000000 0.000000
                            CHANNELS 3 Zrotation Xrotation Yrotation
                            End Site
                            {
                                OFFSET 16.160055 0.000000 0.000000
                            }
                        }
                    }
                }
            }
            JOINT RightShoulder
            {
                OFFSET -4.290631 15.989452 -0.632416
                CHANNELS 3 Zrotation Xrotation Yrotation
                JOINT RightArm
                {
                    OFFSET -11.735877 0.000000 0.000000
                    CHANNELS 3 Zrotation Xrotation Yrotation
                    JOINT RightForeArm
                    {
                        OFFSET -33.149986 0.000000 0.000000
                        CHANNELS 3 Zrotation Xrotation Yrotation
                        JOINT RightHand
                        {
                            OFFSET -28.572401 0.000000 0.000000
                            CHANNELS 3 Zrotation Xrotation Yrotation
                            End Site
                            {
                                OFFSET -16.160055 0.000000 0.000000
                            }
                        }
                    }
                }
            }
        }
    }
    JOINT LeftUpLeg
    {
        OFFSET 10.773369 0.000000 0.000000
        CHANNELS 3 Zrotation Xrotation Yrotation
        JOINT LeftLeg
        {
            OFFSET -0.000000 -54.062664 0.000000
            CHANNELS 3 Zrotation Xrotation Yrotation
            JOINT LeftFoot
            {
                OFFSET -0.000000 -48.941059 0.000000
                CHANNELS 3 Zrotation Xrotation Yrotation
                JOINT LeftToeBase
                {
                    OFFSET -0.000000 -7.002690 16.160055
                    CHANNELS 3 Zrotation Xrotation Yrotation
                    End Site
                    {
                        OFFSET -0.000000 0.000000 4.309348
                    }
                }
            }
        }
    }
    JOINT RightUpLeg
    {
        OFFSET -10.773369 0.000000 0.000000
        CHANNELS 3 Zrotation Xrotation Yrotation
        JOINT RightLeg
        {
            OFFSET -0.000000 -54.062664 0.000000
            CHANNELS 3 Zrotation Xrotation Yrotation
            JOINT RightFoot
            {
                OFFSET -0.000000 -48.941059 0.000000
                CHANNELS 3 Zrotation Xrotation Yrotation
                JOINT RightToeBase
                {
                    OFFSET -0.000000 -7.002690 16.160055
                    CHANNELS 3 Zrotation Xrotation Yrotation
                    End Site
                    {
                        OFFSET -0.000000 0.000000 4.309348
                    }
                }
            }
        }
    }
}
MOTION
Frames:    14
Frame Time:    0.008333
180.556808    109.130768    13.795278    -1.033879    -1.821845    -78.205734    -4.267760    -17.879658    -4.117833    3.903689    6.911455    -3.682014    0.248322    40.584766    -1.443441    -2.418889    -27.842484    -2.351300    13.031666    -1.247794    1.830859    -4.302927    9.955676    -9.951234    0.828679    -14.426538    -3.129224    1.970325    -14.325564    4.742685    -16.581299    -1.436847    7.069619    4.631758    -6.211723    4.715272    -1.785297    -3.249509    -4.983738    -9.531363    -2.696554    -7.562588    5.273138    7.474586    4.105041    -0.586860    10.003647    2.607098    -6.383778    -16.692917    7.795244    0.000000    0.000000    0.000000    -7.292107    8.379068    -6.452093    -1.242494    3.631657    -0.287663    3.294321    -15.145933    -14.554993    0.000000    0.000000    0.000000    
180.556839    109.134102    13.774590    -1.038700    -1.818360    -78.197945    -4.271210    -17.875057    -4.110057    3.905887    6.905084    -3.673774    0.432535    40.579544    -1.441227    -2.676637    -27.800037    -2.399545    13.044418    -1.246682    1.823395    -4.344867    9.903347    -9.933537    0.826405    -14.386191    -3.039256    1.952879    -14.287865    4.665579    -16.586287    -1.409369    7.114643    4.636286    -6.212196    4.618157    -1.786416    -3.275079    -4.933098    -9.519250    -2.719614    -7.593561    5.296294    7.571639    3.438234    -0.727128    9.783930    3.370287    -6.405252    -16.610195    7.696572    0.000000    0.000000    0.000000    -7.266436    8.387435    -6.495532    -1.264015    3.616779    -0.264317    3.311955    -15.135005    -14.536599    0.000000    0.000000    0.000000    
180.560486    109.134331    13.757512    -1.039184    -1.834210    -78.174057    -4.276804    -17.858686    -4.100703    3.891795    6.884826    -3.662639    0.509510    40.577770    -1.409898    -2.787607    -27.773241    -2.389064    13.046536    -1.267753    1.810071    -4.379976    9.909450    -9.910997    0.839548    -14.370945    -2.982882    2.008223    -14.269408    4.729730    -16.604694    -1.409941    7.076186    4.666256    -6.228342    4.630015    -1.784179    -3.264919    -4.940014    -9.526130    -2.708401    -7.600801    5.280910    7.591077    3.292397    -0.724754    9.724263    3.492396    -6.421082    -16.565578    7.692235    0.000000    0.000000    0.000000    -7.264901    8.413691    -6.458807    -1.264360    3.575186    -0.342948    3.294152    -15.127702    -14.521417    0.000000    0.000000    0.000000    
180.564072    109.137901    13.740820    -1.042324    -1.843845    -78.148140    -4.283923    -17.851088    -4.100883    3.896470    6.878421    -3.662029    0.575300    40.571045    -1.365737    -2.920132    -27.745119    -2.376110    13.033926    -1.262793    1.830455    -4.408017    9.861593    -9.924394    0.844015    -14.341512    -2.902042    2.045591    -14.238678    4.744147    -16.632845    -1.404057    7.056628    4.686049    -6.224967    4.630186    -1.790617    -3.273217    -4.935591    -9.512650    -2.716114    -7.621243    5.280838    7.609937    3.195535    -0.737242    9.671744    3.611472    -6.466707    -16.528566    7.655226    0.000000    0.000000    0.000000    -7.252603    8.429367    -6.490567    -1.283359    3.548279    -0.411952    3.315184    -15.110690    -14.439255    0.000000    0.000000    0.000000    
180.567490    109.140396    13.726793    -1.044013    -1.860243    -78.123970    -4.278366    -17.856543    -4.101247    3.860396    6.904838    -3.661799    0.600525    40.503803    -1.301917    -2.966239    -27.665350    -2.319318    13.057340    -1.274071    1.877930    -4.446095    9.828920    -9.948505    0.858676    -14.300216    -2.820960    2.043058    -14.197948    4.729222    -16.641720    -1.384566    7.074783    4.700103    -6.240814    4.582632    -1.791974    -3.283981    -4.919806    -9.509685    -2.727364    -7.615460    5.266506    7.606513    3.250472    -0.704581    9.668496    3.532990    -6.432576    -16.494978    7.645026    0.000000    0.000000    0.000000    -7.253167    8.450396    -6.524070    -1.291482    3.519130    -0.379260    3.322151    -15.096789    -14.468120    0.000000    0.000000    0.000000    
180.569824    109.141991    13.709359    -1.054107    -1.866968    -78.099182    -4.273566    -17.850521    -4.102156    3.851537    6.938949    -3.664289    0.596439    40.434410    -1.228783    -2.998791    -27.611774    -2.255675    13.064494    -1.303823    1.948359    -4.473541    9.757541    -9.993824    0.851180    -14.248598    -2.734612    2.012745    -14.149366    4.668739    -16.891645    -0.980487    6.517972    5.029784    -6.877316    5.397242    -1.834176    -3.158594    -5.228746    -9.533951    -2.616499    -7.502417    5.270265    7.614935    3.256783    -0.694841    9.657274    3.508086    -6.454780    -16.471498    7.637190    0.000000    0.000000    0.000000    -7.234054    8.477399    -6.533625    -1.311308    3.485743    -0.415078    3.295463    -15.087358    -14.446398    0.000000    0.000000    0.000000    
180.573792    109.142494    13.691223    -1.064783    -1.870229    -78.093819    -4.273691    -17.831141    -4.093073    3.860562    6.924549    -3.655996    0.628444    40.436947    -1.163992    -3.084549    -27.593601    -2.212189    13.047612    -1.298010    1.958021    -4.490214    9.732421    -9.978415    0.854621    -14.253881    -2.685218    2.022009    -14.154758    4.657027    -17.233067    -0.298355    5.717413    5.530648    -7.853226    6.630096    -1.928243    -2.976627    -5.703994    -9.553612    -2.456673    -7.368461    5.281538    7.637594    3.217290    -0.707313    9.623975    3.504247    -6.475261    -16.453199    7.679040    0.000000    0.000000    0.000000    -7.220345    8.493451    -6.540259    -1.318803    3.468516    -0.423940    3.297538    -15.080130    -14.440392    0.000000    0.000000    0.000000    
180.575928    109.144341    13.674778    -1.077686    -1.874012    -78.065804    -4.266027    -17.826300    -4.102814    3.850105    6.931715    -3.666718    0.583351    40.453056    -1.078959    -3.069077    -27.594006    -2.129075    13.035417    -1.317015    1.965534    -4.504354    9.753462    -9.926088    0.853469    -14.250617    -2.658413    2.036471    -14.150703    4.681937    -17.250837    -0.307773    5.753372    5.547730    -7.835788    6.594929    -1.938321    -2.992235    -5.711448    -9.537421    -2.474448    -7.362720    5.297307    7.649789    3.182154    -0.716597    9.607280    3.508163    -6.452383    -16.445282    7.688376    0.000000    0.000000    0.000000    -7.201436    8.519647    -6.570876    -1.331409    3.451555    -0.385403    3.294034    -15.068762    -14.470546    0.000000    0.000000    0.000000    
180.598404    109.004501    13.494102    0.041214    -3.452864    -77.153252    -7.614185    -18.501444    -5.030572    5.088465    7.002851    -4.100196    0.620267    40.465805    -1.021879    -3.124284    -27.584709    -2.080974    13.047436    -1.328965    1.944243    -4.529295    9.718090    -9.870424    0.838754    -14.233469    -2.632324    1.984147    -14.135657    4.710412    -17.222803    -0.299013    5.750144    5.529333    -7.888783    6.603973    -1.931242    -2.984863    -5.758869    -9.526751    -2.469784    -7.344098    3.752232    6.540826    2.543223    -0.789357    9.892467    3.353334    -6.685146    -15.929513    7.715055    0.000000    0.000000    0.000000    -8.778672    8.105300    -7.605730    -1.367182    3.249175    -0.284334    2.100212    -16.229385    -14.546523    0.000000    0.000000    0.000000    
180.610733    109.007050    13.475533    0.044537    -3.446576    -77.131950    -7.606977    -18.492104    -5.033057    5.086325    6.978378    -4.103295    0.631913    40.505955    -0.952159    -3.186991    -27.607254    -2.029417    13.042808    -1.325872    1.946095    -4.553756    9.688396    -9.839665    0.833206    -14.252831    -2.600015    1.994834    -14.154381    4.744481    -17.221537    -0.290878    5.780897    5.525239    -7.906345    6.576283    -1.939201    -2.997670    -5.783590    -9.503296    -2.484656    -7.347281    3.771881    6.517488    2.591722    -0.782336    9.909249    3.260286    -6.681320    -15.934428    7.743029    0.000000    0.000000    0.000000    -8.753571    8.117282    -7.496060    -1.371915    3.204738    -0.425193    2.085844    -16.201099    -14.528690    0.000000    0.000000    0.000000    
180.617294    109.012688    13.459757    0.025428    -3.442007    -77.117233    -7.594821    -18.472658    -5.026001    5.080259    6.976122    -4.099059    0.676025    40.530697    -0.913566    -3.261806    -27.624382    -2.006746    13.048556    -1.319651    1.949286    -4.585996    9.577740    -9.827638    0.806540    -14.246376    -2.544334    2.057859    -14.146472    4.738708    -17.209740    -0.270820    5.760355    5.518449    -7.957003    6.605725    -1.938716    -2.991788    -5.833869    -9.468112    -2.481997    -7.345957    3.834155    6.572998    2.456455    -0.899177    9.814087    3.365459    -6.619469    -15.886794    7.764863    0.000000    0.000000    0.000000    -8.723280    8.154938    -7.377892    -1.382831    3.149107    -0.680477    2.159773    -16.163836    -14.401596    0.000000    0.000000    0.000000    
180.625061    109.016861    13.443431    0.004686    -3.431188    -77.108780    -7.577658    -18.453035    -5.014905    5.081495    6.971796    -4.091971    0.738228    40.553802    -0.887816    -3.377522    -27.638622    -2.008212    13.068135    -1.294161    1.951924    -4.632504    9.468243    -9.826576    0.783604    -14.218607    -2.471795    2.108761    -14.118113    4.710295    -17.197536    -0.287490    5.776321    5.505581    -7.977832    6.583122    -1.931986    -2.967075    -5.878568    -9.470190    -2.458309    -7.336861    3.859917    6.584808    2.515898    -0.889728    9.816150    3.266917    -6.645031    -15.897679    7.791864    0.000000    0.000000    0.000000    -8.694108    8.169922    -7.371067    -1.442003    2.866222    -3.946005    3.068657    -15.810389    -10.938755    0.000000    0.000000    0.000000    
180.633087    109.021950    13.427981    0.001366    -3.424516    -77.093155    -7.568809    -18.458353    -5.012376    5.081619    6.991854    -4.091410    0.793384    40.544842    -0.847335    -3.504144    -27.645321    -2.000435    13.080408    -1.296632    1.982936    -4.662663    9.387630    -9.845171    0.774057    -14.197678    -2.404475    2.107493    -14.098038    4.700738    -17.196301    -0.319538    5.793234    5.494517    -7.984191    6.549776    -1.913705    -2.943329    -5.902524    -9.484873    -2.431486    -7.355833    3.881401    6.604846    2.312238    -0.933981    9.747820    3.510272    -6.634513    -15.845430    7.744030    0.000000    0.000000    0.000000    -8.672101    8.176403    -7.353022    -1.446828    2.849941    -3.959295    3.068898    -15.793098    -10.964695    0.000000    0.000000    0.000000    
180.638885    109.026993    13.413179    -0.023699    -3.422235    -77.068527    -7.571802    -18.430719    -5.005210    5.096545    6.981955    -4.086115    0.854432    40.585636    -0.828889    -3.614905    -27.683086    -2.008418    13.081131    -1.279556    1.963940    -4.692665    9.346062    -9.829914    0.783565    -14.203335    -2.351348    2.083501    -14.104820    4.700572    -16.644936    -1.414437    7.074091    4.685002    -6.375058    4.534535    -1.764584    -3.235622    -5.178605    -9.387752    -2.692027    -7.589981    3.952613    6.596068    2.460832    -1.012515    9.816175    3.178848    -6.564896    -15.887280    7.899342    0.000000    0.000000    0.000000    -8.649383    8.206946    -7.359443    -1.453718    2.843088    -3.964937    3.036761    -15.767973    -10.988637    0.000000    0.000000    0.000000    
